<?xml version="1.0" encoding="UTF-8"?>
<!DOCTYPE svg PUBLIC "-//W3C//DTD SVG 1.1//EN" "http://www.w3.org/Graphics/SVG/1.1/DTD/svg11.dtd">
<!-- Creator: CorelDRAW X7 -->
<svg xmlns="http://www.w3.org/2000/svg" xml:space="preserve" width="30px" height="30px" version="1.1" style="shape-rendering:geometricPrecision; text-rendering:geometricPrecision; image-rendering:optimizeQuality; fill-rule:evenodd; clip-rule:evenodd"
viewBox="0 0 2260 2260"
 xmlns:xlink="http://www.w3.org/1999/xlink">
 <defs>
  <style type="text/css">
   <![CDATA[
    .fil1 {fill:none}
    .fil0 {fill:#0090FF}
   ]]>
  </style>
 </defs>
 <g id="Layer_x0020_1">
  <metadata id="CorelCorpID_0Corel-Layer"/>
  <path class="fil0" d="M789 1136c0,-44 24,-74 64,-74l554 0c85,0 85,136 0,136l-554 0c-32,0 -64,-29 -64,-62zm-139 -283c0,-33 28,-64 61,-64l838 0c77,0 89,135 -13,135l-812 0c-43,0 -74,-28 -74,-71zm-277 -139l0 561c0,119 67,223 165,286 19,13 80,42 109,43l0 199c0,48 26,84 71,84 33,0 111,-61 141,-81l267 -177c14,-10 16,-16 39,-16 118,0 350,8 441,-7 14,-3 33,-7 46,-12 24,-8 56,-24 76,-37 96,-64 159,-163 159,-289l0 -557c0,-86 -43,-180 -101,-238 -25,-25 -69,-54 -101,-69 -36,-17 -88,-31 -140,-31l-831 0c-185,0 -341,156 -341,341z"/>
  <rect class="fil1" width="2260" height="2260"/>
 </g>
</svg>
