<?xml version="1.0" encoding="UTF-8"?>
<!DOCTYPE svg PUBLIC "-//W3C//DTD SVG 1.1//EN" "http://www.w3.org/Graphics/SVG/1.1/DTD/svg11.dtd">
<!-- Creator: CorelDRAW X7 -->
<svg xmlns="http://www.w3.org/2000/svg" xml:space="preserve" width="107px" height="107px" version="1.1" style="shape-rendering:geometricPrecision; text-rendering:geometricPrecision; image-rendering:optimizeQuality; fill-rule:evenodd; clip-rule:evenodd"
viewBox="0 0 10000 10000"
 xmlns:xlink="http://www.w3.org/1999/xlink">
 <defs>
  <style type="text/css">
   <![CDATA[
    .fil1 {fill:none}
    .fil0 {fill:#FFC31F;fill-rule:nonzero}
   ]]>
  </style>
 </defs>
 <g id="Layer_x0020_1">
  <metadata id="CorelCorpID_0Corel-Layer"/>
  <path class="fil0" d="M5000 1152c1063,0 2025,431 2721,1127 697,696 1127,1658 1127,2721 0,1063 -430,2025 -1127,2721 -696,697 -1658,1128 -2721,1128 -1063,0 -2025,-431 -2721,-1128 -697,-696 -1127,-1658 -1127,-2721 0,-1063 430,-2025 1127,-2721 696,-696 1658,-1127 2721,-1127zm2563 1285c-526,-525 -1213,-890 -1980,-1015 512,597 897,1190 1154,1782 346,-137 693,-313 1042,-531 -69,-81 -141,-160 -216,-236zm-2311 -1052l-140 -7 0 2166c471,-11 942,-99 1416,-263 -275,-628 -700,-1259 -1276,-1896zm3371 3503c-24,-762 -282,-1465 -705,-2038 -366,230 -731,417 -1096,560 191,493 293,985 307,1478l1494 0zm-1060 2675c75,-75 147,-154 216,-236 -345,-215 -689,-391 -1032,-526 -251,588 -626,1177 -1124,1770 751,-130 1423,-491 1940,-1008zm355 -413c423,-573 681,-1276 705,-2038l-1493 0c-12,494 -112,987 -299,1481 362,144 724,329 1087,557zm-2806 1473c61,-2 121,-6 180,-10 561,-636 977,-1265 1246,-1891 -477,-166 -952,-255 -1426,-266l0 2167zm-2675 -1060c517,517 1189,878 1940,1008 -495,-590 -869,-1176 -1120,-1761 -340,137 -682,314 -1024,531 65,77 133,151 204,222zm2271 1050c59,4 119,8 180,10l0 -2166c-473,13 -947,104 -1422,273 269,624 683,1250 1242,1883zm-3331 -3501c24,769 286,1477 716,2053 361,-230 720,-418 1080,-562 -190,-498 -291,-994 -303,-1491l-1493 0zm1060 -2675c-71,71 -139,145 -204,222 346,219 690,398 1034,535 257,-588 641,-1178 1150,-1772 -767,124 -1454,490 -1980,1015zm-344 398c-430,576 -692,1285 -716,2053l1494 0c15,-496 118,-991 310,-1487 -362,-145 -724,-334 -1088,-566zm2795 -1457l-140 7c-573,634 -997,1263 -1272,1888 472,167 942,257 1412,271l0 -2166zm224 2390l0 1120 1794 0c-15,-465 -112,-932 -293,-1400 -501,175 -1001,268 -1501,280zm0 1344l0 1121c503,11 1006,105 1510,282 177,-469 272,-936 284,-1403l-1794 0zm-224 1121l0 -1121 -1794 0c12,469 108,939 287,1411 503,-180 1005,-276 1507,-290zm0 -1345l0 -1121c-499,-13 -998,-109 -1498,-287 -183,471 -281,940 -296,1408l1794 0z"/>
  <rect class="fil1" width="10000" height="10000"/>
 </g>
</svg>
