<?xml version="1.0" encoding="UTF-8"?>
<!DOCTYPE svg PUBLIC "-//W3C//DTD SVG 1.1//EN" "http://www.w3.org/Graphics/SVG/1.1/DTD/svg11.dtd">
<!-- Creator: CorelDRAW X7 -->
<svg xmlns="http://www.w3.org/2000/svg" xml:space="preserve" width="145px" height="145px" version="1.1" style="shape-rendering:geometricPrecision; text-rendering:geometricPrecision; image-rendering:optimizeQuality; fill-rule:evenodd; clip-rule:evenodd"
viewBox="0 0 1515 1515"
 xmlns:xlink="http://www.w3.org/1999/xlink">
 <defs>
  <style type="text/css">
   <!-- <![CDATA[ -->
    .fil1 {fill:none}
    .fil0 {fill:#5D75C1;fill-rule:nonzero}
   <!-- ]]> -->
  </style>
 </defs>
 <g id="Layer_x0020_1">
  <metadata id="CorelCorpID_0Corel-Layer"/>
  <path class="fil0" d="M165 149l139 0c10,0 19,9 19,19l0 53 344 0 0 -53c0,-10 8,-19 18,-19l139 0c10,0 19,9 19,19l0 53 344 0 0 -53c0,-10 8,-19 18,-19l139 0c10,0 19,9 19,19l0 139c0,10 -9,18 -19,18l-139 0c-10,0 -18,-8 -18,-18l0 -49 -236 0c82,32 155,83 211,149 79,90 128,207 133,335l54 0c11,0 19,9 19,19l0 139c0,10 -8,18 -19,18l-138 0c-11,0 -19,-8 -19,-18l0 -139c0,-10 8,-19 19,-19l47 0c-5,-119 -50,-227 -123,-311 -74,-85 -177,-145 -292,-166l0 42c0,10 -9,18 -19,18l-139 0c-10,0 -18,-8 -18,-18l0 -42c-115,20 -217,80 -291,164 -74,85 -120,194 -124,313l54 0c10,0 18,9 18,19l0 139c0,10 -8,18 -18,18l-139 0c-10,0 -19,-8 -19,-18l0 -139c0,-10 9,-19 19,-19l48 0c4,-128 54,-246 133,-337 57,-64 129,-116 210,-147l-235 0 0 49c0,10 -9,18 -19,18l-139 0c-10,0 -18,-8 -18,-18l0 -139c0,-10 8,-19 18,-19zm121 37l-102 0 0 102 102 0 0 -102zm520 0l-102 0 0 53 0 2c0,3 0,5 0,7l0 40 102 0 0 -102zm520 0l-102 0 0 102 102 0 0 -102zm-1039 593l-102 0 0 102 102 0 0 -102zm1044 0l-102 0 0 102 102 0 0 -102zm-730 243l28 0c-6,-33 -16,-64 -31,-94 -18,-36 -42,-70 -71,-102 -6,-6 -7,-15 -2,-22l214 -383c4,-9 16,-12 25,-8 3,2 5,5 7,8l214 384c4,7 3,16 -3,21 -29,32 -53,66 -71,102 -15,30 -25,61 -31,94l28 0c18,0 34,7 45,19 12,12 19,28 19,45 0,18 -7,34 -19,46 -5,5 -11,10 -18,13l0 202c0,10 -8,18 -18,18 -11,0 -19,-8 -19,-18l0 -196 -287 0 0 196c0,10 -8,18 -18,18 -11,0 -19,-8 -19,-18l0 -202c-7,-3 -13,-8 -18,-13 -12,-12 -19,-28 -19,-46 0,-17 7,-33 19,-45l0 0c12,-12 28,-19 45,-19zm65 0l177 0c6,-39 18,-75 35,-110 18,-36 41,-69 68,-101l-173 -310 0 179c17,4 33,13 45,25 16,16 26,38 26,63 0,24 -10,47 -26,63l0 0c-17,16 -39,26 -63,26 -25,0 -47,-10 -64,-26 -16,-16 -26,-39 -26,-63 0,-25 10,-47 26,-63 13,-12 28,-21 45,-25l0 -179 -173 310c28,32 51,65 68,101 17,35 29,71 35,110zm242 37l-307 0c-7,0 -14,3 -19,8 -5,5 -8,12 -8,19 0,8 3,15 8,20 5,5 12,8 19,8l307 0c7,0 14,-3 19,-8 5,-5 8,-12 8,-20 0,-7 -3,-14 -8,-19 -5,-5 -12,-8 -19,-8zm-116 -328c-10,-10 -23,-16 -37,-16 -15,0 -28,6 -37,16 -10,9 -16,22 -16,37 0,14 6,27 16,37 9,9 22,15 37,15 14,0 27,-6 37,-15 9,-10 15,-23 15,-37 0,-15 -6,-28 -15,-37z"/>
  <rect class="fil1" width="1515" height="1515"/>
 </g>
</svg>
