<?xml version="1.0" encoding="UTF-8"?>
<!DOCTYPE svg PUBLIC "-//W3C//DTD SVG 1.1//EN" "http://www.w3.org/Graphics/SVG/1.1/DTD/svg11.dtd">
<!-- Creator: CorelDRAW X7 -->
<svg xmlns="http://www.w3.org/2000/svg" xml:space="preserve" width="114px" height="114px" version="1.1" style="shape-rendering:geometricPrecision; text-rendering:geometricPrecision; image-rendering:optimizeQuality; fill-rule:evenodd; clip-rule:evenodd"
viewBox="0 0 10000 10000"
 xmlns:xlink="http://www.w3.org/1999/xlink">
 <defs>
  <style type="text/css">
   <![CDATA[
    .fil2 {fill:none}
    .fil0 {fill:#0090FF}
    .fil1 {fill:white}
   ]]>
  </style>
 </defs>
 <g id="Layer_x0020_1">
  <metadata id="CorelCorpID_0Corel-Layer"/>
  <circle class="fil0" cx="5000" cy="5000" r="4572"/>
  <g id="_1758032225600">
   <path class="fil1" d="M4458 4870l0 1448c0,62 44,107 83,134 74,51 517,32 634,32 151,0 281,7 434,7 150,0 300,0 449,0 171,0 290,-208 204,-363 -19,-35 -40,-51 -59,-78 145,-34 239,-203 160,-355 -17,-34 -40,-52 -58,-80 138,-32 220,-183 167,-327 -23,-62 -45,-64 -73,-107 154,-13 261,-258 117,-415 -36,-40 -94,-63 -150,-73 -69,-13 -762,-4 -894,-4l68 -157c24,-58 43,-108 63,-168 70,-209 142,-543 -8,-740 -67,-87 -167,-115 -290,-115 -128,0 -46,451 -118,569 -112,183 -352,336 -488,475 -26,27 -46,39 -72,65 -27,27 -42,42 -66,72 -36,45 -103,104 -103,180z"/>
   <path class="fil1" d="M3416 4862l0 1448c0,90 87,167 181,167l499 0c103,0 181,-86 181,-167l0 -1426c0,-104 -81,-188 -173,-188l-507 0c-94,0 -181,77 -181,166z"/>
  </g>
  <rect class="fil2" width="10000" height="10000"/>
 </g>
</svg>
