<?xml version="1.0" encoding="UTF-8"?>
<!DOCTYPE svg PUBLIC "-//W3C//DTD SVG 1.1//EN" "http://www.w3.org/Graphics/SVG/1.1/DTD/svg11.dtd">
<!-- Creator: CorelDRAW X7 -->
<svg xmlns="http://www.w3.org/2000/svg" xml:space="preserve" width="107px" height="107px" version="1.1" style="shape-rendering:geometricPrecision; text-rendering:geometricPrecision; image-rendering:optimizeQuality; fill-rule:evenodd; clip-rule:evenodd"
viewBox="0 0 1458 1458"
 xmlns:xlink="http://www.w3.org/1999/xlink">
 <defs>
  <style type="text/css">
   <![CDATA[
    .fil1 {fill:none}
    .fil0 {fill:#FFC31F;fill-rule:nonzero}
   ]]>
  </style>
 </defs>
 <g id="Layer_x0020_1">
  <metadata id="CorelCorpID_0Corel-Layer"/>
  <path class="fil0" d="M729 370c48,0 91,20 122,51 32,31 51,75 51,123 0,47 -19,91 -51,122 -31,31 -74,51 -122,51 -48,0 -91,-20 -123,-51l-1 -1c-30,-31 -49,-74 -49,-121 0,-48 19,-92 50,-123 32,-31 75,-51 123,-51zm99 74c-25,-25 -60,-41 -99,-41 -39,0 -74,16 -100,41 -25,26 -41,61 -41,100 0,38 16,73 40,98l1 1c26,25 61,41 100,41 39,0 74,-16 99,-41 26,-25 41,-61 41,-99 0,-39 -15,-74 -41,-100zm-113 838l-299 -510c-17,-29 -35,-72 -47,-117l0 -1c-10,-38 -17,-78 -15,-111l0 -1c0,-103 41,-196 109,-264 68,-68 161,-110 265,-110l2 0c103,0 197,42 264,110 68,68 110,161 110,264l0 2c1,33 -5,73 -15,111 -13,45 -30,88 -47,117l-299 510c-5,7 -15,10 -22,5 -3,-1 -5,-3 -6,-5zm-271 -527l285 486 285 -486c15,-26 32,-66 43,-108 10,-36 16,-72 14,-102l0 -3c0,-94 -38,-179 -100,-241 -62,-62 -147,-100 -241,-101l-2 1c-94,0 -180,38 -242,100 -62,62 -100,147 -100,241l0 2c-1,30 5,66 14,102l1 1c11,42 27,82 43,108z"/>
  <rect class="fil1" width="1458" height="1458"/>
 </g>
</svg>
