<?xml version="1.0" encoding="UTF-8"?>
<!DOCTYPE svg PUBLIC "-//W3C//DTD SVG 1.1//EN" "http://www.w3.org/Graphics/SVG/1.1/DTD/svg11.dtd">
<!-- Creator: CorelDRAW X7 -->
<svg xmlns="http://www.w3.org/2000/svg" xml:space="preserve" width="75px" height="75px" version="1.1" style="shape-rendering:geometricPrecision; text-rendering:geometricPrecision; image-rendering:optimizeQuality; fill-rule:evenodd; clip-rule:evenodd"
viewBox="0 0 659 659"
 xmlns:xlink="http://www.w3.org/1999/xlink">
 <defs>
  <style type="text/css">
   <![CDATA[
    .fil1 {fill:none}
    .fil0 {fill:fuchsia}
   ]]>
  </style>
 </defs>
 <g id="Layer_x0020_1">
  <metadata id="CorelCorpID_0Corel-Layer"/>
  <path class="fil0" d="M329 48c-155,0 -281,126 -281,281 0,156 126,282 281,282 156,0 282,-126 282,-282 0,-155 -126,-281 -282,-281zm-59 108c-10,-10 -26,-10 -37,0 -10,10 -10,27 0,37l137 136 -137 137c-10,10 -10,27 0,37 11,10 27,10 37,0l155 -155c10,-10 10,-27 0,-37l-155 -155z"/>
  <rect class="fil1" width="659" height="659"/>
 </g>
</svg>
