<?xml version="1.0" encoding="UTF-8"?>
<!DOCTYPE svg PUBLIC "-//W3C//DTD SVG 1.1//EN" "http://www.w3.org/Graphics/SVG/1.1/DTD/svg11.dtd">
<!-- Creator: CorelDRAW X7 -->
<svg xmlns="http://www.w3.org/2000/svg" xml:space="preserve" width="75px" height="75px" version="1.1" style="shape-rendering:geometricPrecision; text-rendering:geometricPrecision; image-rendering:optimizeQuality; fill-rule:evenodd; clip-rule:evenodd"
viewBox="0 0 582 582"
 xmlns:xlink="http://www.w3.org/1999/xlink">
 <defs>
  <style type="text/css">
   <![CDATA[
    .fil1 {fill:none}
    .fil0 {fill:fuchsia}
   ]]>
  </style>
 </defs>
 <g id="Layer_x0020_1">
  <metadata id="CorelCorpID_0Corel-Layer"/>
  <path class="fil0" d="M291 42c137,0 249,112 249,249 0,137 -112,249 -249,249 -137,0 -249,-112 -249,-249 0,-137 112,-249 249,-249zm52 96c9,-9 24,-9 33,0 9,9 9,23 0,32l-121 121 121 121c9,9 9,23 0,32 -9,9 -24,9 -33,0l-137 -137c-9,-9 -9,-23 0,-32l137 -137z"/>
  <rect class="fil1" width="582" height="582"/>
 </g>
</svg>
