<?xml version="1.0" encoding="UTF-8"?>
<!DOCTYPE svg PUBLIC "-//W3C//DTD SVG 1.1//EN" "http://www.w3.org/Graphics/SVG/1.1/DTD/svg11.dtd">
<!-- Creator: CorelDRAW X7 -->
<svg xmlns="http://www.w3.org/2000/svg" xml:space="preserve" width="145px" height="145px" version="1.1" style="shape-rendering:geometricPrecision; text-rendering:geometricPrecision; image-rendering:optimizeQuality; fill-rule:evenodd; clip-rule:evenodd"
viewBox="0 0 2213 2213"
 xmlns:xlink="http://www.w3.org/1999/xlink">
 <defs>
  <style type="text/css">
   <![CDATA[
    .fil1 {fill:none}
    .fil0 {fill:#5D75C1;fill-rule:nonzero}
   ]]>
  </style>
 </defs>
 <g id="Layer_x0020_1">
  <metadata id="CorelCorpID_0Corel-Layer"/>
  <path class="fil0" d="M1664 1038l-531 248 0 583 531 -248 0 -583zm-570 207l583 -273c4,-2 9,-3 14,-3 15,0 27,12 27,27l0 642c0,10 -6,19 -16,24l-583 272c-4,3 -8,4 -13,4 -15,0 -27,-12 -27,-27l0 -642c0,-10 6,-20 15,-24z"/>
  <path class="fil0" d="M534 972l583 273c10,4 16,14 16,24l0 642c0,15 -12,27 -27,27 -5,0 -10,-1 -14,-4l-583 -272c-9,-5 -15,-14 -15,-24l0 -642c0,-15 12,-27 27,-27 5,0 9,1 13,3zm545 314l-531 -248 0 583 531 248 0 -583z"/>
  <path class="fil0" d="M307 1798l230 -133 -27 -47 -230 133 -28 -48 -102 154 185 -11 -28 -48zm202 -827l578 -270 0 -233 -56 0 83 -166 83 166 -56 0 0 241 563 266c13,6 19,22 13,36 -3,6 -8,10 -14,13l-590 268c-8,3 -17,3 -24,-1l-580 -271c-13,-6 -19,-22 -13,-36 3,-6 8,-10 13,-13zm597 -219l-522 244 518 241 526 -238 -522 -247zm957 1105l-102 -154 -28 48 -230 -133 -27 47 230 133 -28 48 185 11z"/>
  <rect class="fil1" width="2213" height="2213"/>
 </g>
</svg>
