<?xml version="1.0" encoding="UTF-8"?>
<!DOCTYPE svg PUBLIC "-//W3C//DTD SVG 1.1//EN" "http://www.w3.org/Graphics/SVG/1.1/DTD/svg11.dtd">
<!-- Creator: CorelDRAW X7 -->
<svg xmlns="http://www.w3.org/2000/svg" xml:space="preserve" width="145px" height="145px" version="1.1" style="shape-rendering:geometricPrecision; text-rendering:geometricPrecision; image-rendering:optimizeQuality; fill-rule:evenodd; clip-rule:evenodd"
viewBox="0 0 10000 10000"
 xmlns:xlink="http://www.w3.org/1999/xlink">
 <defs>
  <style type="text/css">
   <![CDATA[
    .fil1 {fill:none}
    .fil0 {fill:#5D75C1;fill-rule:nonzero}
   ]]>
  </style>
 </defs>
 <g id="Layer_x0020_1">
  <metadata id="CorelCorpID_0Corel-Layer"/>
  <path class="fil0" d="M7361 910c242,0 461,98 620,256 158,159 256,378 256,620 0,242 -98,461 -256,620 -159,159 -378,257 -620,257 -242,0 -461,-98 -620,-257 -159,-159 -257,-378 -257,-620 0,-242 98,-461 257,-620l6 -6c159,-155 375,-250 614,-250zm447 429c-114,-115 -273,-186 -447,-186 -172,0 -328,69 -442,180l-6 6c-114,114 -185,273 -185,447 0,175 70,333 185,448 115,114 273,185 448,185 174,0 333,-71 447,-185 115,-114 185,-273 185,-448 0,-174 -70,-333 -185,-447zm-5449 827c-67,0 -122,-54 -122,-122 0,-67 55,-121 122,-121l1323 0c67,0 122,54 122,121 0,68 -55,122 -122,122l-1323 0zm-583 0c-68,0 -122,-54 -122,-122 0,-67 54,-121 122,-121l231 0c68,0 122,54 122,121 0,68 -54,122 -122,122l-231 0zm-160 3525c-68,0 -122,-55 -122,-122 0,-68 54,-122 122,-122l1322 0c68,0 122,54 122,122 0,67 -54,122 -122,122l-1322 0zm-584 0c-67,0 -122,-55 -122,-122 0,-68 55,-122 122,-122l232 0c67,0 122,54 122,122 0,67 -55,122 -122,122l-232 0zm2302 -1036c68,0 122,55 122,122 0,67 -54,122 -122,122l-1323 0c-67,0 -121,-55 -121,-122 0,-67 54,-122 121,-122l1323 0zm584 0c67,0 122,55 122,122 0,67 -55,122 -122,122l-232 0c-67,0 -122,-55 -122,-122 0,-67 55,-122 122,-122l232 0zm-1482 -2018c68,0 122,55 122,122 0,67 -54,122 -122,122l-1322 0c-68,0 -122,-55 -122,-122 0,-67 54,-122 122,-122l1322 0zm584 0c67,0 122,55 122,122 0,67 -55,122 -122,122l-232 0c-67,0 -122,-55 -122,-122 0,-67 55,-122 122,-122l232 0zm1550 -154l1555 0c26,0 51,8 71,22 251,155 517,308 763,469 128,86 202,225 224,373 16,105 5,216 -32,315l612 597 776 0c272,0 434,111 507,258 32,65 46,135 43,206 -2,69 -19,138 -49,202 -83,174 -263,317 -501,317l-1189 0c-36,0 -68,-16 -91,-41l-679 -664 -510 755 816 808c26,26 38,61 36,95l39 2268c5,294 -123,485 -290,572 -69,36 -145,55 -221,55 -75,1 -151,-16 -221,-50 -176,-86 -318,-279 -322,-573l-25 -1681 -655 -595 -807 1012c-23,31 -59,51 -100,51l-1787 0c-248,0 -420,-146 -497,-329 -29,-67 -44,-140 -45,-212 -1,-73 12,-146 41,-213 72,-167 235,-295 501,-295l1299 0 664 -875c-13,-41 -23,-82 -30,-124 -39,-237 25,-474 188,-711l654 -949 -857 -81 -834 819c-125,123 -297,129 -442,62 -53,-25 -103,-60 -146,-103 -42,-44 -77,-96 -100,-154 -60,-152 -39,-339 138,-514l887 -874c84,-83 174,-138 278,-173 99,-32 209,-45 338,-45zm1521 243l-1521 0c-103,0 -189,10 -262,34 -68,23 -127,59 -184,115l-886 874c-94,93 -109,182 -82,251 10,27 27,52 48,73 21,22 46,40 73,52 59,28 126,29 169,-14l875 -859c25,-25 59,-38 96,-35l1118 106c21,2 42,9 60,22 55,38 69,113 31,169l-772 1120c-126,182 -176,360 -148,532 6,35 15,69 27,104 14,18 23,39 25,61 55,120 148,240 280,360l1047 950c24,22 39,53 39,89l26 1734c2,188 84,308 185,357 37,18 76,27 114,26 38,0 76,-9 110,-27 92,-48 162,-164 159,-353l-38 -2228 -854 -844c-40,-41 -48,-106 -15,-155l1086 -1606c42,-71 58,-164 45,-251 -13,-84 -52,-162 -119,-207l-732 -450zm934 1153l-306 454 681 665 1139 0c133,0 235,-80 280,-177 17,-35 26,-71 27,-105 1,-32 -4,-64 -18,-91 -34,-70 -125,-123 -289,-123l-825 0c-30,0 -61,-11 -85,-34l-604 -589zm-1979 2148l-172 -156c-107,-97 -193,-196 -259,-297l-626 826c-24,31 -60,48 -97,48l-1359 0c-152,0 -241,65 -277,148 -16,36 -23,75 -22,114 0,40 9,82 26,120 41,100 136,180 273,180l1729 0 784 -983z"/>
  <rect class="fil1" width="10000" height="10000"/>
 </g>
</svg>
