<?xml version="1.0" encoding="UTF-8"?>
<!DOCTYPE svg PUBLIC "-//W3C//DTD SVG 1.1//EN" "http://www.w3.org/Graphics/SVG/1.1/DTD/svg11.dtd">
<!-- Creator: CorelDRAW X7 -->
<svg xmlns="http://www.w3.org/2000/svg" xml:space="preserve" width="30px" height="30px" version="1.1" style="shape-rendering:geometricPrecision; text-rendering:geometricPrecision; image-rendering:optimizeQuality; fill-rule:evenodd; clip-rule:evenodd"
viewBox="0 0 1531 1531"
 xmlns:xlink="http://www.w3.org/1999/xlink">
 <defs>
  <style type="text/css">
   <![CDATA[
    .fil1 {fill:none}
    .fil0 {fill:fuchsia}
   ]]>
  </style>
 </defs>
 <g id="Layer_x0020_1">
  <metadata id="CorelCorpID_0Corel-Layer"/>
  <g id="_1758067059792">
   <path class="fil0" d="M579 721l0 498c0,21 15,37 29,46 25,17 178,11 218,11 52,0 96,3 149,3 52,0 103,0 155,0 58,0 99,-72 70,-125 -7,-13 -14,-18 -21,-27 50,-12 82,-70 55,-122 -6,-12 -13,-18 -20,-28 48,-11 76,-63 58,-112 -8,-22 -16,-23 -25,-37 53,-5 90,-89 40,-143 -13,-14 -32,-22 -52,-25 -23,-4 -262,-1 -307,-1l23 -54c8,-20 15,-38 22,-58 24,-72 49,-187 -3,-255 -23,-30 -57,-39 -99,-39 -45,0 -16,155 -41,195 -39,63 -121,116 -168,164 -9,9 -16,13 -25,22 -9,10 -14,15 -23,25 -12,15 -35,36 -35,62z"/>
   <path class="fil0" d="M221 718l0 498c0,31 30,58 62,58l172 0c35,0 62,-30 62,-58l0 -490c0,-36 -28,-65 -60,-65l-174 0c-32,0 -62,26 -62,57z"/>
  </g>
  <rect class="fil1" width="1531" height="1531"/>
 </g>
</svg>
