<?xml version="1.0" encoding="UTF-8"?>
<!DOCTYPE svg PUBLIC "-//W3C//DTD SVG 1.1//EN" "http://www.w3.org/Graphics/SVG/1.1/DTD/svg11.dtd">
<!-- Creator: CorelDRAW X7 -->
<svg xmlns="http://www.w3.org/2000/svg" xml:space="preserve" width="30px" height="30px" version="1.1" style="shape-rendering:geometricPrecision; text-rendering:geometricPrecision; image-rendering:optimizeQuality; fill-rule:evenodd; clip-rule:evenodd"
viewBox="0 0 10000 10000"
 xmlns:xlink="http://www.w3.org/1999/xlink">
 <defs>
  <style type="text/css">
   <![CDATA[
    .fil1 {fill:none}
    .fil0 {fill:#FFC31F}
   ]]>
  </style>
 </defs>
 <g id="Layer_x0020_1">
  <metadata id="CorelCorpID_0Corel-Layer"/>
  <g id="_1758129502672">
   <path class="fil0" d="M3127 5019c0,-417 122,-780 340,-1096 109,-158 199,-237 329,-353 1075,-958 3077,-304 3077,1484 0,466 -257,1027 -607,1318 -80,67 -50,62 -191,160 -1293,893 -2948,-73 -2948,-1513zm-2609 -88c0,285 37,254 255,533l203 235c206,258 628,638 900,850 48,38 79,66 127,101 940,688 1904,1030 3084,1030 529,0 1011,-114 1482,-269 629,-208 1404,-685 1911,-1153 83,-77 131,-142 225,-214l314 -332c43,-56 65,-71 106,-123 96,-124 357,-400 357,-518 0,-285 -37,-254 -255,-533 -295,-377 -727,-791 -1103,-1085 -48,-37 -79,-65 -127,-100 -88,-65 -165,-117 -259,-180 -330,-221 -757,-445 -1169,-581 -1095,-363 -2043,-363 -3138,0 -629,208 -1404,684 -1911,1153l-324 323c-35,42 -74,76 -114,115 -39,39 -66,62 -102,108 -103,133 -462,505 -462,640z"/>
   <path class="fil0" d="M3984 4931l0 140c0,483 463,946 946,946 503,0 750,-167 977,-546 113,-188 108,-346 108,-557 0,-466 -462,-928 -928,-928 -338,0 -554,38 -818,302 -135,134 -285,382 -285,643z"/>
  </g>
  <rect class="fil1" width="10000" height="10000"/>
 </g>
</svg>
